<?xml version="1.0" encoding="UTF-8" standalone="no"?><!DOCTYPE svg PUBLIC "-//W3C//DTD SVG 1.1//EN" "http://www.w3.org/Graphics/SVG/1.1/DTD/svg11.dtd"><svg width="100%" height="100%" viewBox="0 0 10158 1359" version="1.1" xmlns="http://www.w3.org/2000/svg" xmlns:xlink="http://www.w3.org/1999/xlink" xml:space="preserve" xmlns:serif="http://www.serif.com/" style="fill-rule:evenodd;clip-rule:evenodd;stroke-linejoin:round;stroke-miterlimit:2;"><g id="logo"><rect x="0" y="0" width="3139.96" height="1358.716" style="fill:#ef5b5b;"/>
<style>
    @keyframes telos-blink {
      0%, 49% { opacity: 1; }
      50%, 100% { opacity: 0; }
    }
    #telos-cursor { animation: telos-blink 1.1s step-end infinite; }
  </style>
<rect id="telos-cursor" x="10095.676" y="41.424" width="62.136" height="1284.152" style="fill:#ef5b5b;"/><g transform="matrix(1415.329189,0,0,1415.329189,40.451713,1163.414367)"><path d="M0.26,-0c-0.033,-0 -0.059,-0.01 -0.08,-0.03c-0.02,-0.02 -0.03,-0.048 -0.03,-0.082l0,-0.28l-0.124,0l0,-0.104l0.124,0l0,-0.154l0.126,0l0,0.154l0.136,0l0,0.104l-0.136,0l0,0.258c0,0.02 0.009,0.03 0.028,0.03l0.096,0l0,0.104l-0.14,-0Z" style="fill:#fff;fill-rule:nonzero;"/></g><g transform="matrix(1415.329189,0,0,1415.329189,575.446146,1163.414367)"><path d="M0.296,0.014c-0.049,0 -0.093,-0.011 -0.13,-0.032c-0.038,-0.021 -0.067,-0.051 -0.088,-0.089c-0.021,-0.038 -0.031,-0.084 -0.032,-0.136l0,-0.012c0,-0.052 0.01,-0.097 0.031,-0.136c0.021,-0.038 0.05,-0.068 0.087,-0.089c0.037,-0.021 0.081,-0.031 0.13,-0.031c0.049,0 0.091,0.011 0.127,0.032c0.036,0.022 0.064,0.052 0.084,0.09c0.02,0.038 0.03,0.083 0.03,0.134l0,0.043l-0.361,0c0.001,0.034 0.014,0.062 0.038,0.083c0.024,0.021 0.053,0.032 0.088,0.032c0.035,-0 0.061,-0.008 0.078,-0.023c0.017,-0.015 0.029,-0.032 0.038,-0.051l0.103,0.054c-0.009,0.017 -0.023,0.036 -0.04,0.057c-0.018,0.02 -0.041,0.038 -0.071,0.052c-0.029,0.014 -0.067,0.021 -0.112,0.021Zm-0.121,-0.319l0.232,0c-0.003,-0.029 -0.014,-0.052 -0.035,-0.069c-0.02,-0.017 -0.047,-0.026 -0.08,-0.026c-0.034,-0 -0.061,0.009 -0.081,0.026c-0.02,0.017 -0.032,0.04 -0.037,0.069Z" style="fill:#fff;fill-rule:nonzero;"/></g><g transform="matrix(1415.329189,0,0,1415.329189,1307.171337,1163.414367)"><rect x="0.07" y="-0.7" width="0.126" height="0.7" style="fill:#fff;fill-rule:nonzero;"/></g><g transform="matrix(1415.329189,0,0,1415.329189,1598.72915,1163.414367)"><path d="M0.306,0.014c-0.049,0 -0.094,-0.01 -0.133,-0.03c-0.039,-0.02 -0.07,-0.049 -0.093,-0.087c-0.023,-0.038 -0.034,-0.084 -0.034,-0.137l0,-0.016c0,-0.053 0.011,-0.099 0.034,-0.137c0.023,-0.038 0.054,-0.067 0.093,-0.087c0.039,-0.02 0.084,-0.03 0.133,-0.03c0.049,0 0.094,0.01 0.133,0.03c0.039,0.02 0.07,0.049 0.093,0.087c0.023,0.038 0.034,0.084 0.034,0.137l0,0.016c0,0.053 -0.011,0.099 -0.034,0.137c-0.023,0.038 -0.054,0.067 -0.093,0.087c-0.039,0.02 -0.084,0.03 -0.133,0.03Zm0,-0.112c0.039,-0 0.071,-0.012 0.096,-0.038c0.025,-0.025 0.038,-0.061 0.038,-0.107l0,-0.01c0,-0.047 -0.013,-0.082 -0.037,-0.107c-0.025,-0.025 -0.057,-0.037 -0.097,-0.038c-0.039,0 -0.071,0.013 -0.096,0.038c-0.025,0.025 -0.038,0.061 -0.038,0.107l0,0.01c0,0.047 0.013,0.082 0.038,0.107c0.025,0.025 0.057,0.037 0.096,0.038Z" style="fill:#fff;fill-rule:nonzero;"/></g><g transform="matrix(1415.329189,0,0,1415.329189,2379.990862,1163.414367)"><path d="M0.276,0.014c-0.065,0 -0.118,-0.014 -0.159,-0.042c-0.041,-0.028 -0.066,-0.068 -0.075,-0.12l0.116,-0.03c0.005,0.023 0.013,0.042 0.023,0.055c0.011,0.013 0.025,0.023 0.041,0.028c0.016,0.006 0.034,0.008 0.054,0.008c0.029,0 0.051,-0.005 0.065,-0.015c0.014,-0.01 0.021,-0.023 0.021,-0.039c-0,-0.015 -0.007,-0.027 -0.02,-0.036c-0.013,-0.008 -0.035,-0.015 -0.064,-0.02l-0.028,-0.005c-0.035,-0.007 -0.066,-0.016 -0.095,-0.027c-0.029,-0.012 -0.052,-0.028 -0.069,-0.049c-0.017,-0.021 -0.026,-0.047 -0.026,-0.08c0,-0.049 0.018,-0.087 0.054,-0.114c0.036,-0.026 0.083,-0.039 0.142,-0.039c0.055,0 0.101,0.012 0.138,0.037c0.037,0.025 0.061,0.057 0.072,0.097l-0.117,0.036c-0.005,-0.025 -0.016,-0.043 -0.033,-0.054c-0.016,-0.011 -0.037,-0.016 -0.06,-0.016c-0.024,0 -0.042,0.004 -0.055,0.013c-0.013,0.008 -0.019,0.02 -0.019,0.035c0,0.016 0.007,0.028 0.02,0.035c0.013,0.008 0.031,0.014 0.054,0.018l0.028,0.005c0.037,0.007 0.071,0.015 0.101,0.026c0.03,0.011 0.054,0.027 0.072,0.047c0.018,0.02 0.026,0.048 0.026,0.083c0,0.052 -0.019,0.092 -0.056,0.12c-0.038,0.028 -0.088,0.042 -0.151,0.042Z" style="fill:#fff;fill-rule:nonzero;"/></g><g transform="matrix(1415.329189,0,0,1415.329189,3121.623357,1163.414367)"></g><g transform="matrix(1415.329189,0,0,1415.329189,3396.19722,1163.414367)"></g><g transform="matrix(1415.329189,0,0,1415.329189,9989.193395,1072.280975)"></g><text x="3233.827px" y="1072.281px" style="font-family:'SpaceGrotesk-Light', 'Space Grotesk';font-weight:300;font-size:1415.329px;">g<tspan x="4159.452px 5019.973px 5900.307px 6791.965px 8026.132px 8374.303px 9241.9px " y="1072.281px 1072.281px 1072.281px 1072.281px 1072.281px 1072.281px 1072.281px ">enomics</tspan></text></g></svg>